<svg width="1006" height="2402" viewBox="0 0 1006 2402" fill="none" xmlns="http://www.w3.org/2000/svg">
<rect width="503" height="1201" fill="white" fill-opacity="0.1" transform="scale(2)"/>
<path opacity="0.4" d="M0 68.0271C0 68.0271 54.403 -1.57215 103.5 0.0271459C122.244 0.637727 139.702 4.34589 155.5 14.5271C178 29.0271 201.076 62.3923 228 95.0271C244.5 115.027 358.5 295.527 384 443.527L396 469.527L399 504.527L447 481.527V528.027L402 548.027C402 548.027 407.895 616.237 407.5 660.027C406.409 781.076 383 870.527 355 965.527L335.5 972.027L308 1028.03V1037.53C281 1095.03 257.5 1123.03 222 1174.03C219.5 1174.03 0 1174.03 0 1174.03V68.0271Z" transform="translate(58 25.9457) scale(2)" fill="white"/>
<path d="M0 12L28 0V37H11L0 12Z" transform="translate(154 1416) scale(2)" fill="#652282"/>
<path d="M0 0L29 2V17.5H0V0Z" transform="translate(259 1641) scale(2 -2) rotate(90)" fill="#652282"/>
<path d="M0 5L10.5 0V2.5H12.5L15.5 43H0V5Z" transform="translate(214 1404) scale(2)" fill="#7E9B1B"/>
<path d="M0 0H35L36.5 16H0V0Z" transform="translate(176 1494) scale(2)" fill="#F39100"/>
<path d="M0 18L41.5 0L52.5 25V99.5H33V67H0V18Z" transform="translate(67 1442) scale(2)" fill="#652282"/>
<path d="M0 28L63 0L105 94L105.5 98.5H82.5V129.5H92V147.5H6V40.5L0 28Z" transform="translate(418 1267) scale(2)" fill="#D60651"/>
<path d="M0 14L32.5 0L39 13.5V73.5H0V14Z" transform="translate(348 1325) scale(2)" fill="#951881"/>
<rect width="128" height="268" transform="translate(58 1644) scale(2)" fill="#009EE3"/>
<rect opacity="0.4" width="128" height="28" transform="translate(58 2184) scale(2)" fill="#C4C4C4"/>
<path d="M0 4.5L13 0V60.5H54V106H231.5L236.5 111.5C230 166.5 209 230 192 271L183 267.5L178 278.5L173.5 276.5H89.5L61 331.5H0V4.5Z" transform="translate(318 1354) scale(2)" fill="#7E9B1B"/>
<path d="M0 13.5L29.5 0L58 64L52.5 66.5L56 73V79.5H29.5L0 13.5Z" transform="translate(567 1230) scale(2)" fill="#AFCA05"/>
<path d="M0 26.5L59 0V27H89.5V107H35L0 26.5Z" transform="translate(631 1175) scale(2)" fill="#951881"/>
<path d="M0 11L26 0L27.5 37H0V11Z" transform="translate(753 1151) scale(2)" fill="#652282"/>
<path d="M0 11.5L22.5 0L25 49.5H1.5L0 11.5Z" transform="translate(811 1126) scale(2)" fill="#134094"/>
<path d="M0 0H18.5V18H0V0Z" transform="translate(58 2243) scale(2)" fill="#C4C4C4" fill-opacity="0.5"/>
<path d="M18.9961 0L427.41 3.31434L425.322 48.5763L0 41.3449L18.9961 0Z" transform="translate(27.4772 1393.86) scale(2) rotate(-24.6767)" fill="white"/>
<path d="M22 0H45V41L28 65L0 45.5L9 34H22V0Z" transform="translate(416 660) scale(2)" fill="#B23D02"/>
<path d="M28 0H75L26.5 71.5L0 54L28 12.5V0Z" transform="translate(551 737) scale(2)" fill="#AFCA05"/>
<path d="M55 0L75 67.5L55 72L61.5 97.5L53 109L0 72.5L49 0H55Z" transform="translate(607 737) scale(2)" fill="#AFCA05"/>
<path d="M5.5 4L23.5 0L34.5 54L0 30L9 18L5.5 4Z" transform="translate(716 897) scale(2)" fill="#AFCA05"/>
<path d="M23 0L33.5 22.5L37.5 61L8 40.5L0 3.5L23 0Z" transform="translate(774 919) scale(2)" fill="#D60651"/>
<path d="M3.5 0H58.5L79.5 45L63.5 55V110L36 151L0 126L17.5 101.5V57H3.5V0Z" transform="translate(476 541) scale(2)" fill="#B23D02"/>
<path d="M0 0.263804L43 0V25.2638H84L81 64.7638H0V0.263804Z" transform="translate(67 1164.47) scale(2)" fill="#F39100"/>
<path d="M0 0H88L86 43H0V0Z" transform="translate(67 1075) scale(2)" fill="#AFCA05"/>
<path d="M0 0H52V40H0V0Z" transform="translate(139 991) scale(2)" fill="#AFCA05"/>
<path d="M0 0H85.5V21H0V0Z" transform="translate(72 945) scale(2)" fill="#AFCA05"/>
<path d="M0 10H58.5L68.5 0C73.5 6 78 9.5 85.5 12.5L86 40.5H0V10Z" transform="translate(72 773) scale(2)" fill="#AFCA05"/>
<path d="M0 0H59C59 7 62.5 18 67 23L57.5 33H0V0Z" transform="translate(72 723) scale(2)" fill="#F39100"/>
<path d="M0 0H85.5V41.5H0V0Z" transform="translate(72 858) scale(2)" fill="#AFCA05"/>
<path d="M0 0H40.5L39 23H0V0Z" transform="translate(157 1165) scale(2)" fill="#C4C4C4" fill-opacity="0.5"/>
<path d="M0 0H4V28H0V0Z" transform="translate(265 1141) scale(2)" fill="#C4C4C4" fill-opacity="0.5"/>
<path d="M0 0H4V28H0V0Z" transform="translate(279 1141) scale(2)" fill="#C4C4C4" fill-opacity="0.5"/>
<rect width="10" height="20" transform="translate(266 1096) scale(2)" fill="#C4C4C4" fill-opacity="0.5"/>
<path d="M0 14.5L33 0L39.5 14.5L1.5 31.5L0 14.5Z" transform="translate(319 1191) scale(2)" fill="#F39100"/>
<path d="M0 6H15L27 0L34 16.5L2 31L0 6Z" transform="translate(316 1152) scale(2)" fill="#820B16"/>
<path d="M0 16.5L24 5.5L22.5 2L26.5 0L43 37.5L14.5 50L0 16.5Z" transform="translate(374 1117) scale(2)" fill="#AFCA05"/>
<path d="M0 14.5L32 0L45.5 29.5L13 44.5L0 14.5Z" transform="translate(438 1101) scale(2)" fill="#AFCA05"/>
<path d="M0 0H29.5L34.5 11.5L17.5 20H2L0 0Z" transform="translate(310 1119) scale(2)" fill="#134094"/>
<path d="M0 5H47L57.5 0L70.5 29.5L56.5 36.5L59 42L53 45L54.5 48.5L38.5 55.5L32.5 43H1.5L0 5Z" transform="translate(307 1029) scale(2)" fill="#AFCA05"/>
<path d="M0 0H63.5V6.5L67 13L46 23H0V0Z" transform="translate(308 988) scale(2)" fill="#B23D02"/>
<path d="M0 0H33.5L85.5 36.5L77.5 46.5L75 45H0V0Z" transform="translate(307 895) scale(2)" fill="#AFCA05"/>
<path d="M0 18.5L12.5 0L58.5 31.5L49 44.5L37 35.5L32.5 41.5L0 18.5Z" transform="translate(344 797) scale(2)" fill="#134094"/>
<path d="M0 30L20.5 0L49 19.5L28 50.5L0 30Z" transform="translate(424 863) scale(2)" fill="#AFCA05"/>
<path d="M0 0H16.5L50 23.5L43.5 33L34.5 27H0V0Z" transform="translate(307 837) scale(2)" fill="#7E9B1B"/>
<path d="M2.70003 4.43771e-05L39.0808 2.58552L60.196 18.8535L54.5336 27.1714L37.2417 25.9493L35.9443 31.8287L0 28.9993L2.70003 4.43771e-05Z" transform="translate(592.634 944.286) scale(2) rotate(119.189)" fill="#AFCA05"/>
<path d="M2.50734 0L53.0732 4.39764L78.7583 22.6946L68.8843 36.8015L62.6587 32.8339L54.2357 44.412L36.8685 31.7775L0 28.319L2.50734 0Z" transform="translate(644.446 979.622) scale(2) rotate(119.189)" fill="#AFCA05"/>
<path d="M0 11.5C7.5 9.00003 12.5 3.50003 15.5 0L29 9.5L16 29H0V11.5Z" transform="translate(307 775) scale(2)" fill="#F39100"/>
<path d="M0 8.5L18.5 0L30.5 26.5L12 34.5L0 8.5Z" transform="translate(548 1074) scale(2)" fill="#652282"/>
<path d="M0 19L13 0L29.5 38L12 46L0 19Z" transform="translate(590 1033) scale(2)" fill="#652282"/>
<path d="M0 20.5L13 0L29 10L48.5 45.5L17 59.5L0 20.5Z" transform="translate(620 987) scale(2)" fill="#AFCA05"/>
<path d="M0 3L6.5 0L18.5 26L11.5 29L0 3Z" transform="translate(530 1093) scale(2)" fill="#652282"/>
<path d="M0 5.5L9.5 0H22.5V29.5L20.5 32L4 20C3.49998 14.5 2.5 10 0 5.5Z" transform="translate(348 669) scale(2)" fill="#F2E500"/>
<path d="M0 0L30.5 21C25 29.5 21.5 38.5 17.5 50.5L0 44V0Z" transform="translate(63 580) scale(2)" fill="#F39100"/>
<path d="M40 0L51.5 33C45 37 44 37 36.5 43.5L0 0H40Z" transform="translate(81 501) scale(2)" fill="#F39100"/>
<path d="M26.5 0L31.5 23.5C25 26 21 27.5 11.5 32L0 0H26.5Z" transform="translate(165 501) scale(2)" fill="#F39100"/>
<path d="M0 0H7L44 44.5C40 48.5 37 51 31.5 59L0 37.5V0Z" transform="translate(63 501) scale(2)" fill="#F39100"/>
<path d="M0 0H80.5V64H0V0Z" transform="translate(63 367) scale(2)" fill="#52606B"/>
<path d="M0 0H47L82.5 49V149H68.5L59 155C50 143 42.5 137 25 135L9.5 64H0V0Z" transform="translate(228 367) scale(2)" fill="#AFCA05"/>
<rect width="22" height="20" transform="translate(270 660) scale(2)" fill="#C4C4C4" fill-opacity="0.5"/>
<rect width="50.9866" height="3.92325" transform="translate(238.505 689.459) scale(2) rotate(35.0353)" fill="#C4C4C4" fill-opacity="0.5"/>
<rect width="50.9866" height="3.92325" transform="translate(230.505 702) scale(2) rotate(35.0353)" fill="#C4C4C4" fill-opacity="0.5"/>
<path d="M8 0L36.5 19.5C35 21.5 35 22 34 24L0 14.5C2.5 8.5 4.5 4 8 0Z" transform="translate(132 635) scale(2)" fill="#F39100"/>
<path d="M6.56634 0L35.5465 19.0209C34.1367 21.473 33.7843 22.086 32.8573 24.4078L6.09721e-06 12.0425C2.33678 7.26863 3.61624 4.33384 6.56634 0Z" transform="translate(157.276 606.747) scale(2) rotate(15.1044)" fill="#F39100"/>
<path d="M6.60421 0L35.339 19.0608C33.9292 21.5129 33.1712 22.7948 32.2442 25.1166L0 12.3354C2.20648 7.07885 3.05694 5.164 6.60421 0Z" transform="translate(184.221 585.023) scale(2) rotate(26.9035)" fill="#F39100"/>
<path d="M9.21475 0L36.3665 21.3842C34.597 24.005 33.7122 25.3155 31.7591 29.3386L1.22196e-05 15.9087C2.20649 10.6522 5.78192 4.46413 9.21475 0Z" transform="translate(219.387 563.771) scale(2) rotate(37.5394)" fill="#F39100"/>
</svg>
