<svg width="2036" height="4880" viewBox="0 0 2036 4880" fill="none" xmlns="http://www.w3.org/2000/svg">
<g clip-path="url(#clip0)">
<rect width="509" height="1220" fill="white" fill-opacity="0.1" transform="scale(4)"/>
<path d="M0 93.1569C33 55.1569 70 13.1569 87.5 4.15689C93.5 -1.3431 125.427 -2.64864 141 8.1569C165.5 25.1569 198.03 74.3506 243.5 128.157C271.5 161.29 357.5 312.157 387 460.657L415.5 456.157L423 469.657V606.157H407C407 629.157 422.5 777.157 356.5 953.157C336.5 1011.66 284 1124.66 256 1149.16C238.5 1165.16 224 1179.16 177 1184.16H4.99998V861.157H0V93.1569Z" transform="translate(98 99.3724) scale(4)" fill="#F1F1F1"/>
<path d="M0 12.5L28 0L32.5 48.5H0V12.5Z" transform="translate(372 2922) scale(4)" fill="#652282"/>
<path d="M0 0H20V13.5H0V0Z" transform="translate(606 3144) scale(4 -4) rotate(90)" fill="#C6C6C5"/>
<path d="M0 0H24V19H0V0Z" transform="translate(516 3276) scale(4 -4) rotate(90)" fill="#C6C6C5"/>
<path d="M0 0H15V27H0V0Z" transform="translate(544 2928) scale(4)" fill="#652282"/>
<path d="M0 28L62.5 0V38H98V42H75.5V81H105L108 92.5H0V28Z" transform="translate(112 2976) scale(4)" fill="#652282"/>
<path d="M0 69L155 0V177.5H0V69Z" transform="translate(660 2566) scale(4)" fill="#D60651"/>
<path d="M0 246H108.5V263H265.5V245H324V167.5H295V47.5L400.5 0C408 70.5 410.5 219.5 361.5 359.5C346.168 410.608 285.5 545.5 261.5 571C238.5 599.5 206.286 610.292 176.5 613L5.50001 613V289.5H0V246Z" transform="translate(110 2372) scale(4)" fill="#009EE3"/>
<path d="M0 0H2V99H0V0Z" transform="translate(708 3332) scale(4) rotate(-90)" fill="black"/>
<path d="M0 0H2V99H0V0Z" transform="translate(708 3312) scale(4) rotate(-90)" fill="black"/>
<path d="M0 0H2V33H0V0Z" transform="translate(948 3384) scale(4) rotate(-90)" fill="black"/>
<path d="M0 0H2V33H0V0Z" transform="translate(948 3364) scale(4) rotate(-90)" fill="black"/>
<path d="M0 0H4V48H0V0Z" transform="translate(1060 2836) scale(4)" fill="black"/>
<path d="M0 0H4V48H0V0Z" transform="translate(1088 2836) scale(4)" fill="black"/>
<path d="M20.8749 0.393756L311.038 0L309.098 49.7316L0 45.8275L20.8749 0.393756Z" transform="translate(579.469 2657.43) scale(4) rotate(-24.6767)" fill="white"/>
<path d="M36.7398 0L116.128 36.4755L99.8951 80.19L0 79.9636L36.7398 0Z" transform="translate(-25.0059 2781.36) scale(4) rotate(-24.6767)" fill="white"/>
<path d="M0 11H66L78.5 0C81.5 3 83 6 88 9V39H0V11Z" transform="translate(108 1560) scale(4)" fill="#C6C6C5"/>
<path d="M0 0H69C69 7 72.5 18 77 23L65.5 33H0V0Z" transform="translate(108 1462) scale(4)" fill="#F39100"/>
<path d="M0 0H69C69 6.47761 68.8506 15.8731 73 20.5L69.5 22.5H0V0Z" transform="translate(108 1454) scale(4 -4)" fill="#7E9B1B"/>
<path d="M0 0H3V38H0V0Z" transform="translate(560 2208) scale(4)" fill="black"/>
<path d="M0 0H3V38H0V0Z" transform="translate(584 2208) scale(4)" fill="black"/>
<path d="M0 0H9V70H0V0Z" transform="translate(560 2616) scale(4)" fill="#F39100"/>
<path d="M0 0H88L89.5 40H0V0Z" transform="translate(108 2532) scale(4)" fill="#F39100"/>
<path d="M0 0H25.5L25 20H0V0Z" transform="translate(360 2440) scale(4)" fill="#C6C6C5"/>
<path d="M0 0H88V22H61V44H0V0Z" transform="translate(108 2344) scale(4)" fill="#7E9B1B"/>
<path d="M0 0H88V34H0V0Z" transform="translate(108 2200) scale(4)" fill="#94C11C"/>
<path d="M0 0H88V29H0V0Z" transform="translate(108 2076) scale(4)" fill="#C6C6C5"/>
<path d="M0 0H88V27H0V0Z" transform="translate(108 1960) scale(4)" fill="#F2E500"/>
<path d="M0 0H88V57H0V0Z" transform="translate(108 1724) scale(4)" fill="#B23D02"/>
<path d="M0 0H85.2985V33.5L71.5 44L66.5 33H0V0Z" transform="translate(660 1960) scale(4)" fill="#AFCA05"/>
<path d="M0 0H21.5L38 14.5L0 32V0Z" transform="translate(660 2476) scale(4)" fill="#652282"/>
<path d="M0 0H64.5L69.5 10.5L50.5 30.5H0V0Z" transform="translate(660 2100) scale(4)" fill="#E5007D"/>
<path d="M0 6C5 3.5 5 3.5 8 0L9 1H39.5V14H0V6Z" transform="translate(660 1572) scale(4)" fill="#652282"/>
<path d="M1.5 0H17V10H1.31529e-09C1 6.5 1.49995 3 1.5 0Z" transform="translate(732 1464) scale(4)" fill="#C4C4C4" fill-opacity="0.5"/>
<path d="M7 0H39V13.5H0C3 9.5 6.5 3 7 0Z" transform="translate(698 1512) scale(4)" fill="#652282"/>
<path d="M0 99.5L17 60L151.5 0L174 56.5L15 131.5L0 99.5Z" transform="translate(1000 1896) scale(4)" fill="#C6C6C5"/>
<path d="M0 31H42V15.5H50V0H85V110H26V72H0V31Z" transform="translate(660 1512) scale(4)" fill="#AFCA05"/>
<path d="M0 0H24V16H13.5V7.5H0V0Z" transform="translate(660 1808) scale(4)" fill="#652282"/>
<path d="M0 0H11.5V6.5H0V0Z" transform="translate(660 1846) scale(4)" fill="#652282"/>
<rect width="24" height="18" transform="translate(660 1880) scale(4)" fill="#652282"/>
<path d="M0 0H70.5L76.5 13L83.5 10L98 42.5L40 68.5L22 53H0V0Z" transform="translate(660 2256) scale(4)" fill="#C6C6C5"/>
<path d="M0 10L19 0H22.5L22.5 34.5H6.5C6.5 22.5 4 15 0 10Z" transform="translate(712 1318) scale(4)" fill="#F39100"/>
<path d="M0 0H240C264 31 281 62.5 303 105L266.5 122.5V150H204V174.5H169L150 184.5C138 166.5 100 150.5 74 188L70.5 186H0V0Z" transform="translate(108 612) scale(4)" fill="#F2E500"/>
<rect width="11" height="26" transform="translate(520 1496) scale(4)" fill="#652282"/>
<rect width="16" height="21" transform="translate(816 1352) scale(4)" fill="#C6C6C5"/>
<rect width="44.2834" height="3.92325" transform="translate(508.97 1373.99) scale(4) rotate(35.0353)" fill="black"/>
<path d="M0 0L44.3907 0V3.92325H0L0 0Z" transform="translate(494.612 1395.15) scale(4) rotate(35.0353)" fill="black"/>
<rect width="9" height="9" transform="translate(912 1324) scale(4)" fill="#C6C6C5"/>
<rect width="9" height="9" transform="translate(912 1372) scale(4)" fill="#C6C6C5"/>
<rect width="25" height="33" transform="translate(960 1324) scale(4)" fill="#C6C6C5"/>
<rect width="9" height="9" transform="translate(912 1420) scale(4)" fill="#C6C6C5"/>
</g>
<defs>
<clipPath id="clip0">
<rect width="509" height="1220" fill="white" transform="scale(4)"/>
</clipPath>
</defs>
</svg>
