<svg width="668" height="808" viewBox="0 0 668 808" fill="none" xmlns="http://www.w3.org/2000/svg">
<path d="M0 0H113.5C113.5 22 137.999 51.4844 168.5 50.5C198.037 49.5467 220 15.5 220 0H334V327C334 335.284 327.284 342 319 342H15C6.71573 342 0 335.284 0 327V0Z" transform="translate(0 124) scale(2)" fill="white"/>
<path d="M20.8044 95.72C15.3644 95.72 11.2044 94.04 8.32437 90.68C5.49771 87.32 3.92438 82.7067 3.60438 76.84L11.6044 74.68C11.871 78.84 12.671 82.2 14.0044 84.76C15.391 87.32 17.6577 88.6 20.8044 88.6C23.151 88.6 24.911 87.96 26.0844 86.68C27.311 85.3467 27.9244 83.4533 27.9244 81C27.9244 78.3333 27.3644 76.12 26.2444 74.36C25.1244 72.6 23.3377 70.6533 20.8844 68.52L10.0044 58.92C7.81771 57 6.21771 54.9467 5.20438 52.76C4.24438 50.52 3.76438 47.8 3.76438 44.6C3.76438 39.8533 5.12438 36.1733 7.84438 33.56C10.5644 30.9467 14.271 29.64 18.9644 29.64C24.0844 29.64 27.951 31 30.5644 33.72C33.1777 36.44 34.751 40.6533 35.2844 46.36L27.6044 48.44C27.3377 44.6533 26.591 41.7467 25.3644 39.72C24.191 37.64 22.0577 36.6 18.9644 36.6C16.671 36.6 14.911 37.2133 13.6844 38.44C12.4577 39.6133 11.8444 41.3733 11.8444 43.72C11.8444 45.64 12.1644 47.2667 12.8044 48.6C13.4444 49.88 14.5377 51.1867 16.0844 52.52L27.0444 62.12C29.871 64.6267 32.111 67.3467 33.7644 70.28C35.471 73.2133 36.3244 76.5467 36.3244 80.28C36.3244 85.0267 34.8844 88.7867 32.0044 91.56C29.1244 94.3333 25.391 95.72 20.8044 95.72ZM42.8569 30.2H51.4169V53.56C55.2569 49.9333 59.1235 48.12 63.0169 48.12C65.5235 48.12 67.2835 49.0267 68.2969 50.84C69.3635 52.6533 69.8969 54.8933 69.8969 57.56V95H61.3369V60.04C61.3369 58.28 61.0702 56.9733 60.5369 56.12C60.0035 55.2667 59.0435 54.84 57.6569 54.84C55.7902 54.84 53.7102 55.8533 51.4169 57.88V95H42.8569V30.2ZM90.9619 95.64C86.0552 95.64 82.5619 94.2 80.4819 91.32C78.4552 88.3867 77.4419 84.1467 77.4419 78.6V65.16C77.4419 59.6133 78.4552 55.4 80.4819 52.52C82.5619 49.5867 86.0552 48.12 90.9619 48.12C95.8152 48.12 99.2552 49.5867 101.282 52.52C103.362 55.4 104.402 59.6133 104.402 65.16V78.6C104.402 84.1467 103.362 88.3867 101.282 91.32C99.2552 94.2 95.8152 95.64 90.9619 95.64ZM90.9619 89.32C92.5085 89.32 93.6285 88.8667 94.3219 87.96C95.0152 87.0533 95.4419 85.9333 95.6019 84.6C95.7619 83.2667 95.8419 81.4533 95.8419 79.16V64.68C95.8419 62.3867 95.7619 60.5733 95.6019 59.24C95.4419 57.8533 95.0152 56.7067 94.3219 55.8C93.6285 54.8933 92.5085 54.44 90.9619 54.44C89.4152 54.44 88.2685 54.8933 87.5219 55.8C86.8285 56.7067 86.4019 57.8533 86.2419 59.24C86.0819 60.5733 86.0019 62.3867 86.0019 64.68V79.16C86.0019 81.4533 86.0819 83.2667 86.2419 84.6C86.4019 85.9333 86.8285 87.0533 87.5219 87.96C88.2685 88.8667 89.4152 89.32 90.9619 89.32ZM112.226 48.76H120.786V52.44C123.293 49.56 126.226 48.12 129.586 48.12C133.8 48.12 136.6 49.9333 137.986 53.56C139.426 57.1333 140.146 61.1067 140.146 65.48V76.68C140.146 82.3333 139.266 86.92 137.506 90.44C135.8 93.9067 132.84 95.64 128.626 95.64C125.906 95.64 123.293 94.28 120.786 91.56V110.2H112.226V48.76ZM126.946 88.92C128.92 88.92 130.173 87.9333 130.706 85.96C131.293 83.9333 131.586 80.84 131.586 76.68V65.48C131.586 62.0667 131.266 59.4533 130.626 57.64C129.986 55.7733 128.653 54.84 126.626 54.84C124.653 54.84 122.706 55.64 120.786 57.24V86.84C122.653 88.2267 124.706 88.92 126.946 88.92ZM147.929 48.76H156.489V52.44C158.996 49.56 161.929 48.12 165.289 48.12C169.503 48.12 172.303 49.9333 173.689 53.56C175.129 57.1333 175.849 61.1067 175.849 65.48V76.68C175.849 82.3333 174.969 86.92 173.209 90.44C171.503 93.9067 168.543 95.64 164.329 95.64C161.609 95.64 158.996 94.28 156.489 91.56V110.2H147.929V48.76ZM162.649 88.92C164.623 88.92 165.876 87.9333 166.409 85.96C166.996 83.9333 167.289 80.84 167.289 76.68V65.48C167.289 62.0667 166.969 59.4533 166.329 57.64C165.689 55.7733 164.356 54.84 162.329 54.84C160.356 54.84 158.409 55.64 156.489 57.24V86.84C158.356 88.2267 160.409 88.92 162.649 88.92ZM184.193 32.92H192.752V41.88H184.193V32.92ZM184.193 48.76H192.752V95H184.193V48.76ZM201.914 48.76H210.474V53.32C214.154 49.8533 217.914 48.12 221.754 48.12C224.26 48.12 226.047 49.0267 227.114 50.84C228.18 52.6533 228.714 54.8933 228.714 57.56V95H220.154V60.04C220.154 58.28 219.887 56.9733 219.354 56.12C218.82 55.2667 217.86 54.84 216.474 54.84C214.767 54.84 212.767 55.8 210.474 57.72V95H201.914V48.76ZM249.07 109.32C244.59 109.32 241.017 108.6 238.35 107.16C235.683 105.773 234.35 103.587 234.35 100.6C234.35 98.5733 234.963 96.8133 236.19 95.32C237.47 93.8267 239.07 92.6267 240.99 91.72C239.55 91.2933 238.43 90.6267 237.63 89.72C236.883 88.8133 236.51 87.8267 236.51 86.76C236.51 85.16 236.91 83.7733 237.71 82.6C238.51 81.4267 239.817 80.0133 241.63 78.36C239.817 76.9733 238.457 75.24 237.55 73.16C236.697 71.0267 236.27 68.1733 236.27 64.6C236.27 59.2133 237.363 55.1333 239.55 52.36C241.79 49.5333 245.043 48.12 249.31 48.12C251.763 48.12 253.763 48.5467 255.31 49.4C256.857 50.2533 258.03 51.5333 258.83 53.24C259.203 52.6533 259.977 51.88 261.15 50.92C262.377 49.9067 263.683 49.08 265.07 48.44L266.35 47.88L268.51 53.4C267.443 53.6133 265.95 54.0667 264.03 54.76C262.163 55.4533 261.043 55.9867 260.67 56.36C261.043 57.32 261.363 58.6533 261.63 60.36C261.95 62.0667 262.11 63.56 262.11 64.84C262.11 69.9067 261.123 73.8533 259.15 76.68C257.177 79.4533 253.897 80.84 249.31 80.84C247.87 80.84 246.403 80.6533 244.91 80.28C243.897 81.7733 243.39 82.9467 243.39 83.8C243.39 84.3867 243.683 84.8667 244.27 85.24C244.91 85.56 245.897 85.7733 247.23 85.88L254.43 86.52C258.057 86.84 260.75 87.9333 262.51 89.8C264.27 91.6667 265.15 94.3333 265.15 97.8C265.15 105.48 259.79 109.32 249.07 109.32ZM249.31 74.84C251.603 74.84 253.097 74.04 253.79 72.44C254.483 70.84 254.83 68.2267 254.83 64.6C254.83 60.92 254.483 58.2533 253.79 56.6C253.097 54.8933 251.63 54.04 249.39 54.04C247.15 54.04 245.63 54.8933 244.83 56.6C244.083 58.2533 243.71 60.92 243.71 64.6C243.71 67.9067 244.083 70.44 244.83 72.2C245.63 73.96 247.123 74.84 249.31 74.84ZM249.71 102.6C252.75 102.6 254.99 102.227 256.43 101.48C257.87 100.787 258.59 99.64 258.59 98.04C258.59 96.5467 258.137 95.4533 257.23 94.76C256.323 94.0133 254.67 93.5333 252.27 93.32L244.99 92.68C243.87 93.8 243.017 94.7867 242.43 95.64C241.843 96.4933 241.55 97.4267 241.55 98.44C241.55 99.88 242.137 100.92 243.31 101.56C244.537 102.253 246.67 102.6 249.71 102.6ZM78.7909 119.2H87.6709L99.1109 171.76L110.631 119.2H119.431L120.631 184H113.351L112.631 136.96L101.671 184H96.5509L85.6709 136.96L84.9509 184H77.5909L78.7909 119.2ZM138.163 184.64C136.403 184.64 134.803 184.133 133.363 183.12C131.977 182.107 130.883 180.773 130.083 179.12C129.283 177.467 128.883 175.733 128.883 173.92C128.883 170.293 129.657 167.36 131.203 165.12C132.75 162.827 134.723 161.013 137.123 159.68C139.523 158.347 142.857 156.827 147.123 155.12V151.84C147.123 148.8 146.803 146.667 146.163 145.44C145.577 144.16 144.35 143.52 142.483 143.52C139.23 143.52 137.603 145.707 137.603 150.08V152.4L129.123 152.08C129.23 146.96 130.403 143.2 132.643 140.8C134.883 138.347 138.35 137.12 143.043 137.12C147.47 137.12 150.67 138.347 152.643 140.8C154.67 143.2 155.683 146.853 155.683 151.76V172.88C155.683 176.347 155.95 180.053 156.483 184H148.643C148.057 180.96 147.683 178.693 147.523 177.2C146.883 179.28 145.763 181.04 144.163 182.48C142.617 183.92 140.617 184.64 138.163 184.64ZM141.523 177.28C142.643 177.28 143.737 176.853 144.803 176C145.87 175.093 146.643 174.24 147.123 173.44V160.32C144.83 161.6 143.043 162.72 141.763 163.68C140.537 164.587 139.497 165.653 138.643 166.88C137.843 168.107 137.443 169.573 137.443 171.28C137.443 173.2 137.79 174.693 138.483 175.76C139.177 176.773 140.19 177.28 141.523 177.28ZM163.906 137.76H172.466V141.44C174.973 138.56 177.906 137.12 181.266 137.12C185.479 137.12 188.279 138.933 189.666 142.56C191.106 146.133 191.826 150.107 191.826 154.48V165.68C191.826 171.333 190.946 175.92 189.186 179.44C187.479 182.907 184.519 184.64 180.306 184.64C177.586 184.64 174.973 183.28 172.466 180.56V199.2H163.906V137.76ZM178.626 177.92C180.599 177.92 181.853 176.933 182.386 174.96C182.973 172.933 183.266 169.84 183.266 165.68V154.48C183.266 151.067 182.946 148.453 182.306 146.64C181.666 144.773 180.333 143.84 178.306 143.84C176.333 143.84 174.386 144.64 172.466 146.24V175.84C174.333 177.227 176.386 177.92 178.626 177.92Z" transform="translate(66 284) scale(2)" fill="#4F4F4F"/>
<circle cx="50" cy="50" r="50" transform="translate(234 24) scale(2)" stroke="white" stroke-width="9"/>
<path d="M22.6676 0L45.3351 50.4789L22.4146 40.3845L0 50.4789L22.6676 0Z" transform="translate(346.144 46.9592) scale(2) rotate(45)" stroke="white" stroke-width="5"/>
</svg>
